<?xml version="1.0" encoding="utf-8"?>
<!-- Generator: Adobe Illustrator 17.1.0, SVG Export Plug-In . SVG Version: 6.00 Build 0)  -->
<!DOCTYPE svg PUBLIC "-//W3C//DTD SVG 1.1//EN" "http://www.w3.org/Graphics/SVG/1.1/DTD/svg11.dtd">
<svg version="1.1" id="Layer_1" xmlns="http://www.w3.org/2000/svg" xmlns:xlink="http://www.w3.org/1999/xlink" x="0px" y="0px"
	 viewBox="0 0 372.1 178.5" enable-background="new 0 0 372.1 178.5" xml:space="preserve">
<g>
	<path fill="#8EC641" d="M28.5,41.9c0-4.5,2.5-7,7-7h7.2c4.7,0,7,2.5,7,7v43.3c0,10.3,2.7,17.3,13.1,17.3
		c15.3,0,23.8-13.5,23.8-28.6V41.9c0-4.5,2.3-7,7-7h7.2c4.5,0,7,2.5,7,7v70.9c0,4.7-2.5,7-7,7h-6.5c-4.5,0-6.8-2.3-6.8-7v-5
		c0-2,0.3-3.8,0.3-3.8h-0.3c-4,8.6-15,17.8-29.4,17.8c-18.1,0-29.4-9.1-29.4-32.3V41.9z"/>
	<path fill="#8EC641" d="M118.5,41.9c0-4.5,2.3-7,6.8-7h6.5c4.5,0,6.8,2.5,6.8,7v5.2c0,1.8-0.3,3.8-0.3,3.8h0.3
		c4.2-8.3,14.5-18,27.8-18c12.8,0,21.3,6,24.8,17.5h0.3c4.5-8.8,15.6-17.5,28.9-17.5c17.6,0,27.8,10,27.8,32.3v47.6c0,4.7-2.5,7-7,7
		h-7.2c-4.7,0-7-2.3-7-7V69.2c0-9.6-1.8-17-11.6-17c-14.3,0-21.6,14.6-21.6,29.4v31.1c0,4.7-2.3,7-6.8,7h-7.3c-4.5,0-7-2.3-7-7V69.2
		c0-9.1-1.3-17-11.3-17c-15,0-22,15.3-22,29.4v31.1c0,4.7-2.3,7-6.8,7h-7.3c-4.5,0-6.8-2.3-6.8-7V41.9z"/>
	<path fill="#8EC641" d="M282.9,76.9l-22-33.6c-3.2-4.7-1.2-8.3,4.5-8.3h8.5c3.8,0,6.3,1.7,8.2,5l10.6,18.1c1.2,2.2,2.7,5.3,2.7,5.3
		h0.3c0,0,1.7-3.2,2.7-5.3L309,39.9c1.8-3.3,4.3-5,8.2-5h8.5c5.7,0,7.7,3.7,4.5,8.3l-21.8,33.6l22.6,34.6c3,4.7,1,8.3-4.7,8.3h-8
		c-3.8,0-6.3-1.5-8.2-4.8L298,95.2c-1-1.8-2.3-4.5-2.3-4.5h-0.3c0,0-1.2,2.7-2.3,4.5L281,115c-2,3.3-4.5,4.8-8.2,4.8h-8.2
		c-5.7,0-7.7-3.7-4.5-8.3L282.9,76.9z"/>
</g>
<path fill="#8EC641" d="M349.3,42c0,3.9-3,6.9-6.9,6.9c-3.9,0-6.9-3-6.9-6.9c0-3.9,3-6.9,6.9-6.9C346.3,35.1,349.3,38.1,349.3,42
	 M336.6,42c0,3.3,2.5,5.9,5.9,5.9c3.3,0,5.8-2.6,5.8-5.9c0-3.3-2.5-6-5.8-6C339,36.1,336.6,38.7,336.6,42 M340.9,46h-1v-8h3.1
	c1.8,0,2.6,0.8,2.6,2.2c0,1.4-0.9,2.1-2,2.2l2.4,3.6h-1.2l-2.3-3.6h-1.7V46z M342.2,41.6c1.2,0,2.4,0,2.4-1.4c0-1.1-0.9-1.4-1.9-1.4
	h-1.8v2.8H342.2z"/>
<path fill="#FFFFFF" d="M30.4,135.7h0.9v6c0,2.3,1.1,3.1,2.8,3.1c1.8,0,2.9-0.9,2.8-3.1v-6h0.9v6.2c0,2-1.1,3.7-3.8,3.7
	c-2.7,0-3.8-1.7-3.8-3.7V135.7z"/>
<polygon fill="#FFFFFF" points="43.7,135.7 44.8,135.7 50.4,143.9 50.4,143.9 50.4,135.7 51.3,135.7 51.3,145.3 50.3,145.3 
	44.7,137.2 44.6,137.2 44.6,145.3 43.7,145.3 "/>
<rect x="57.3" y="135.7" fill="#FFFFFF" width="0.9" height="9.7"/>
<polygon fill="#FFFFFF" points="63.1,135.7 64.1,135.7 67.2,144.3 67.2,144.3 70.4,135.7 71.3,135.7 67.7,145.3 66.7,145.3 "/>
<polygon fill="#FFFFFF" points="76.1,135.7 82.8,135.7 82.8,136.5 77,136.5 77,140 82.4,140 82.4,140.7 77,140.7 77,144.6 
	82.9,144.6 82.9,145.3 76.1,145.3 "/>
<path fill="#FFFFFF" d="M88.1,135.7h4.4c1.6,0,2.9,0.8,2.9,2.5c0,1.2-0.6,2.2-1.9,2.5v0c1.3,0.2,1.6,1,1.7,2.2c0,0.7,0,2,0.4,2.5h-1
	c-0.2-0.4-0.2-1.1-0.3-1.5c-0.1-1.4-0.2-2.9-1.9-2.8H89v4.3h-0.9V135.7z M89,140.3h3.4c1.1,0,2.1-0.7,2.1-1.9c0-1.2-0.7-1.9-2.1-1.9
	H89V140.3z"/>
<path fill="#FFFFFF" d="M101.5,142.2c0,2,1.4,2.6,3.2,2.6c1,0,2.6-0.6,2.6-2c0-1.1-1.1-1.5-2-1.7l-2.2-0.5c-1.1-0.3-2.2-0.8-2.2-2.3
	c0-0.9,0.6-2.7,3.3-2.7c1.9,0,3.6,1,3.6,3h-0.9c-0.1-1.5-1.3-2.2-2.6-2.2c-1.3,0-2.4,0.5-2.4,1.9c0,0.9,0.7,1.3,1.5,1.5l2.4,0.6
	c1.4,0.4,2.5,1,2.5,2.6c0,0.7-0.3,2.8-3.7,2.8c-2.3,0-4-1-3.9-3.4H101.5z"/>
<rect x="113.6" y="135.7" fill="#FFFFFF" width="0.9" height="9.7"/>
<polygon fill="#FFFFFF" points="119.4,135.7 127.1,135.7 127.1,136.5 123.7,136.5 123.7,145.3 122.8,145.3 122.8,136.5 119.4,136.5 
	"/>
<polygon fill="#FFFFFF" points="134.6,141.4 130.8,135.7 131.9,135.7 135.1,140.6 138.3,135.7 139.4,135.7 135.6,141.4 135.6,145.3 
	134.6,145.3 "/>
<polygon fill="#FFFFFF" points="151.8,135.7 153.2,135.7 156.5,144.2 159.9,135.7 161.2,135.7 161.2,145.3 160.3,145.3 160.3,137 
	160.3,137 157,145.3 156.1,145.3 152.8,137 152.8,137 152.8,145.3 151.8,145.3 "/>
<path fill="#FFFFFF" d="M169.9,135.7h1l3.8,9.7h-1l-1.2-3h-4.4l-1.2,3h-1L169.9,135.7z M168.5,141.6h3.8l-1.9-5L168.5,141.6z"/>
<path fill="#FFFFFF" d="M179.5,135.7h4.4c1.6,0,2.9,0.8,2.9,2.5c0,1.2-0.6,2.2-1.9,2.5v0c1.3,0.2,1.6,1,1.7,2.2c0,0.7,0,2,0.4,2.5
	h-1c-0.2-0.4-0.2-1.1-0.3-1.5c-0.1-1.4-0.2-2.9-1.9-2.8h-3.5v4.3h-0.9V135.7z M180.5,140.3h3.4c1.1,0,2.1-0.7,2.1-1.9
	c0-1.2-0.7-1.9-2.1-1.9h-3.4V140.3z"/>
<polygon fill="#FFFFFF" points="192.5,135.7 193.4,135.7 193.4,140.9 199.1,135.7 200.3,135.7 196,139.7 200.5,145.3 199.3,145.3 
	195.3,140.3 193.4,142 193.4,145.3 192.5,145.3 "/>
<polygon fill="#FFFFFF" points="205.2,135.7 211.9,135.7 211.9,136.5 206.2,136.5 206.2,140 211.6,140 211.6,140.7 206.2,140.7 
	206.2,144.6 212,144.6 212,145.3 205.2,145.3 "/>
<polygon fill="#FFFFFF" points="216.2,135.7 223.8,135.7 223.8,136.5 220.5,136.5 220.5,145.3 219.5,145.3 219.5,136.5 216.2,136.5 
	"/>
<polygon fill="#FFFFFF" points="236.4,135.7 243.1,135.7 243.1,136.5 237.3,136.5 237.3,140 242.7,140 242.7,140.7 237.3,140.7 
	237.3,144.6 243.1,144.6 243.1,145.3 236.4,145.3 "/>
<polygon fill="#FFFFFF" points="247.4,135.7 248.5,135.7 251.2,139.7 254.1,135.7 255.1,135.7 251.8,140.4 255.3,145.3 254.2,145.3 
	251.2,141.1 248.2,145.3 247.2,145.3 250.7,140.4 "/>
<path fill="#FFFFFF" d="M267.1,138.6c-0.3-1.5-1.6-2.3-3-2.3c-2.6,0-3.6,2.1-3.6,4.3s1.1,4.3,3.6,4.3c1.8,0,2.9-1.4,3.1-3.1h0.9
	c-0.3,2.4-1.8,3.9-4,3.9c-3.1,0-4.6-2.4-4.6-5c0-2.6,1.5-5,4.6-5c1.8,0,3.6,1.1,3.9,3.1H267.1z"/>
<polygon fill="#FFFFFF" points="273.5,135.7 274.5,135.7 274.5,139.9 280.2,139.9 280.2,135.7 281.1,135.7 281.1,145.3 280.2,145.3 
	280.2,140.7 274.5,140.7 274.5,145.3 273.5,145.3 "/>
<path fill="#FFFFFF" d="M289.8,135.7h1l3.8,9.7h-1l-1.2-3h-4.4l-1.2,3h-1L289.8,135.7z M288.4,141.6h3.8l-1.9-5L288.4,141.6z"/>
<polygon fill="#FFFFFF" points="299.5,135.7 300.5,135.7 306.1,143.9 306.2,143.9 306.2,135.7 307.1,135.7 307.1,145.3 306.1,145.3 
	300.4,137.2 300.4,137.2 300.4,145.3 299.5,145.3 "/>
<path fill="#FFFFFF" d="M321.2,145.3h-0.7l-0.1-1.8h0c-0.7,1.4-2,2-3.3,2c-3.1,0-4.6-2.4-4.6-5c0-2.6,1.5-5,4.6-5c2,0,3.7,1.1,4,3.2
	h-0.9c-0.1-1.1-1.3-2.4-3.1-2.4c-2.6,0-3.6,2.1-3.6,4.3c0,2.1,1.1,4.3,3.6,4.3c2.1,0,3.4-1.5,3.3-3.6h-3.3v-0.8h4.1V145.3z"/>
<polygon fill="#FFFFFF" points="326.9,135.7 333.6,135.7 333.6,136.5 327.9,136.5 327.9,140 333.2,140 333.2,140.7 327.9,140.7 
	327.9,144.6 333.7,144.6 333.7,145.3 326.9,145.3 "/>
</svg>
