<?xml version="1.0" encoding="utf-8"?>
<!-- Generator: Adobe Illustrator 18.1.0, SVG Export Plug-In . SVG Version: 6.00 Build 0)  -->
<!DOCTYPE svg PUBLIC "-//W3C//DTD SVG 1.1//EN" "http://www.w3.org/Graphics/SVG/1.1/DTD/svg11.dtd">
<svg version="1.1" id="Layer_1" xmlns="http://www.w3.org/2000/svg" xmlns:xlink="http://www.w3.org/1999/xlink" x="0px" y="0px"
	 viewBox="0 307 612 198" enable-background="new 0 307 612 198" xml:space="preserve">
	 	    <style>
        svg * {
            transition: fill 1s ease-out, opacity .1s ease-out;
        }
	
        @media screen and (max-width: 200px) {
            #UMX-Text { 
                opacity: 0; 
            }
            
        }
        @media screen and (max-width: 180px) {
		svg{
		margin-left:-35px
		}
            #triangle {
                opacity: 0;
				
            }
        }
    </style>
<g id="UMX">
	<g enable-background="new    ">
		<path fill="#8EC641" d="M171.2,347c0-5.8,3.2-9,9-9h9.2c6,0,9,3.2,9,9v55.5c0,13.2,3.4,22.2,16.9,22.2c19.6,0,30.5-17.3,30.5-36.7
			v-41c0-5.8,3-9,9-9h9.2c5.8,0,9,3.2,9,9v90.9c0,6-3.2,9-9,9h-8.3c-5.8,0-8.8-3-8.8-9v-6.4c0-2.6,0.4-4.9,0.4-4.9h-0.4
			c-5.1,11.1-19.2,22.8-37.8,22.8c-23.3,0-37.8-11.7-37.8-41.4V347z"/>
	</g>
	<g enable-background="new    ">
		<path fill="#8EC641" d="M286.6,347c0-5.8,3-9,8.8-9h8.3c5.8,0,8.8,3.2,8.8,9v6.6c0,2.3-0.4,4.9-0.4,4.9h0.4
			c5.3-10.7,18.6-23.1,35.6-23.1c16.4,0,27.3,7.7,31.8,22.4h0.4c5.8-11.3,20.1-22.4,37.1-22.4c22.6,0,35.6,12.8,35.6,41.4v61
			c0,6-3.2,9-9,9h-9.2c-6,0-9-3-9-9V382c0-12.4-2.3-21.8-14.9-21.8c-18.4,0-27.7,18.8-27.7,37.8v39.9c0,6-3,9-8.8,9h-9.4
			c-5.8,0-9-3-9-9V382c0-11.7-1.7-21.8-14.5-21.8c-19.2,0-28.2,19.6-28.2,37.8v39.9c0,6-3,9-8.8,9h-9.4c-5.8,0-8.8-3-8.8-9V347z"/>
	</g>
	<g enable-background="new    ">
		<path fill="#8EC641" d="M497.5,391.8l-28.2-43.1c-4.1-6-1.5-10.7,5.8-10.7H486c4.9,0,8.1,2.1,10.5,6.4l13.7,23.3
			c1.5,2.8,3.4,6.8,3.4,6.8h0.4c0,0,2.1-4.1,3.4-6.8l13.7-23.3c2.3-4.3,5.5-6.4,10.5-6.4h10.9c7.3,0,9.8,4.7,5.8,10.7l-28,43.1
			l29,44.4c3.8,6,1.3,10.7-6,10.7H543c-4.9,0-8.1-1.9-10.5-6.2l-15.6-25.4c-1.3-2.3-3-5.8-3-5.8h-0.4c0,0-1.5,3.4-3,5.8l-15.4,25.4
			c-2.6,4.3-5.8,6.2-10.5,6.2h-10.5c-7.3,0-9.8-4.7-5.8-10.7L497.5,391.8z"/>
	</g>
	<path fill="#8EC641" d="M582.7,347.1c0,5-3.8,8.9-8.9,8.9s-8.9-3.8-8.9-8.9s3.8-8.9,8.9-8.9S582.7,342,582.7,347.1 M566.5,347.1
		c0,4.2,3.2,7.6,7.6,7.6c4.2,0,7.4-3.3,7.4-7.6c0-4.2-3.2-7.7-7.4-7.7C569.5,339.5,566.5,342.8,566.5,347.1 M572,352.2h-1.3v-10.3h4
		c2.3,0,3.3,1,3.3,2.8c0,1.8-1.2,2.7-2.6,2.8l3.1,4.6H577l-3-4.6h-2.2v4.6H572z M573.6,346.5c1.5,0,3.1,0,3.1-1.8
		c0-1.4-1.2-1.8-2.4-1.8H572v3.6C572,346.5,573.6,346.5,573.6,346.5z"/>
</g>
<g id="UMX-Text">
	<path fill="#5D5E5E" d="M173.6,467.3h1.2v7.7c0,3,1.4,4,3.6,4c2.3,0,3.7-1.2,3.6-4v-7.7h1.2v8c0,2.6-1.4,4.7-4.9,4.7
		c-3.5,0-4.9-2.2-4.9-4.7v-8H173.6z"/>
	<polygon fill="#5D5E5E" points="190.7,467.3 191.9,467.3 199.3,477.8 199.3,477.8 199.3,467.3 200.4,467.3 200.4,479.7 
		199.1,479.7 191.9,469.2 191.8,469.2 191.8,479.7 190.7,479.7 	"/>
	<rect x="208.1" y="467.3" fill="#5D5E5E" width="1.2" height="12.4"/>
	<polygon fill="#5D5E5E" points="215.5,467.3 216.8,467.3 220.8,478.3 220.8,478.3 224.8,467.3 226.1,467.3 221.4,479.7 
		220.2,479.7 	"/>
	<polygon fill="#5D5E5E" points="232.2,467.3 240.8,467.3 240.8,468.3 233.4,468.3 233.4,472.8 240.3,472.8 240.3,473.8 
		233.4,473.8 233.4,478.7 241,478.7 241,479.7 232.2,479.7 	"/>
	<path fill="#5D5E5E" d="M247.6,467.3h5.6c2.1,0,3.7,1,3.7,3.2c0,1.5-0.8,2.8-2.4,3.2l0,0c1.7,0.3,2.1,1.3,2.2,2.8
		c0,0.9,0,2.6,0.5,3.2H256c-0.3-0.5-0.3-1.4-0.4-1.9c-0.1-1.8-0.3-3.7-2.4-3.6h-4.5v5.5h-1V467.3z M248.8,473.2h4.4
		c1.4,0,2.7-0.9,2.7-2.4s-0.9-2.4-2.7-2.4h-4.4V473.2z"/>
	<path fill="#5D5E5E" d="M264.8,475.6c0,2.6,1.8,3.3,4.1,3.3c1.3,0,3.3-0.8,3.3-2.6c0-1.4-1.4-1.9-2.6-2.2l-2.8-0.6
		c-1.4-0.4-2.8-1-2.8-3c0-1.2,0.8-3.5,4.2-3.5c2.4,0,4.6,1.3,4.6,3.8h-1.2c-0.1-1.9-1.7-2.8-3.3-2.8c-1.7,0-3.1,0.6-3.1,2.4
		c0,1.2,0.9,1.7,1.9,1.9l3.1,0.8c1.8,0.5,3.2,1.3,3.2,3.3c0,0.9-0.4,3.6-4.7,3.6c-3,0-5.1-1.3-5-4.4h1V475.6z"/>
	<rect x="280.3" y="467.3" fill="#5D5E5E" width="1.2" height="12.4"/>
	<polygon fill="#5D5E5E" points="287.8,467.3 297.7,467.3 297.7,468.3 293.3,468.3 293.3,479.7 292.1,479.7 292.1,468.3 
		287.8,468.3 	"/>
	<polygon fill="#5D5E5E" points="307.3,474.6 302.4,467.3 303.8,467.3 307.9,473.6 312,467.3 313.4,467.3 308.6,474.6 308.6,479.7 
		307.3,479.7 	"/>
	<polygon fill="#5D5E5E" points="329.4,467.3 331.1,467.3 335.4,478.2 339.7,467.3 341.4,467.3 341.4,479.7 340.3,479.7 
		340.3,468.9 340.3,468.9 336,479.7 334.9,479.7 330.6,468.9 330.5,468.9 330.5,479.7 329.4,479.7 	"/>
	<path fill="#5D5E5E" d="M352.6,467.3h1.3l4.9,12.4h-1.3l-1.5-3.8h-5.6l-1.5,3.8h-1.3L352.6,467.3z M350.6,474.8h4.9l-2.4-6.4
		L350.6,474.8z"/>
	<path fill="#5D5E5E" d="M364.9,467.3h5.6c2.1,0,3.7,1,3.7,3.2c0,1.5-0.8,2.8-2.4,3.2l0,0c1.7,0.3,2.1,1.3,2.2,2.8
		c0,0.9,0,2.6,0.5,3.2h-1.3c-0.3-0.5-0.3-1.4-0.4-1.9c-0.1-1.8-0.3-3.7-2.4-3.6h-4.5v5.5h-1.2v-12.4H364.9z M366.2,473.2h4.4
		c1.4,0,2.7-0.9,2.7-2.4s-0.9-2.4-2.7-2.4h-4.4V473.2z"/>
	<polygon fill="#5D5E5E" points="381.6,467.3 382.7,467.3 382.7,473.9 390,467.3 391.6,467.3 386.1,472.4 391.8,479.7 390.3,479.7 
		385.2,473.2 382.7,475.4 382.7,479.7 381.6,479.7 	"/>
	<polygon fill="#5D5E5E" points="397.9,467.3 406.5,467.3 406.5,468.3 399.1,468.3 399.1,472.8 406.1,472.8 406.1,473.8 
		399.1,473.8 399.1,478.7 406.6,478.7 406.6,479.7 397.9,479.7 	"/>
	<polygon fill="#5D5E5E" points="412,467.3 421.7,467.3 421.7,468.3 417.5,468.3 417.5,479.7 416.2,479.7 416.2,468.3 412,468.3 	
		"/>
	<polygon fill="#5D5E5E" points="437.9,467.3 446.5,467.3 446.5,468.3 439,468.3 439,472.8 446,472.8 446,473.8 439,473.8 
		439,478.7 446.5,478.7 446.5,479.7 437.9,479.7 	"/>
	<polygon fill="#5D5E5E" points="452,467.3 453.4,467.3 456.9,472.4 460.6,467.3 461.9,467.3 457.7,473.3 462.1,479.7 460.7,479.7 
		456.9,474.2 453,479.7 451.8,479.7 456.2,473.3 	"/>
	<path fill="#5D5E5E" d="M477.3,471c-0.4-1.9-2.1-3-3.8-3c-3.3,0-4.6,2.7-4.6,5.5c0,2.8,1.4,5.5,4.6,5.5c2.3,0,3.7-1.8,4-4h1.2
		c-0.4,3.1-2.3,5-5.1,5c-4,0-5.9-3.1-5.9-6.4c0-3.3,1.9-6.4,5.9-6.4c2.3,0,4.6,1.4,5,4h-1.2V471z"/>
	<polygon fill="#5D5E5E" points="485.5,467.3 486.8,467.3 486.8,472.7 494.1,472.7 494.1,467.3 495.2,467.3 495.2,479.7 
		494.1,479.7 494.1,473.7 486.8,473.7 486.8,479.7 485.5,479.7 	"/>
	<path fill="#5D5E5E" d="M506.4,467.3h1.3l4.9,12.4h-1.3l-1.5-3.8h-5.5l-1.5,3.8h-1.3L506.4,467.3z M504.6,474.8h4.9l-2.4-6.4
		L504.6,474.8z"/>
	<polygon fill="#5D5E5E" points="518.9,467.3 520.1,467.3 527.3,477.8 527.4,477.8 527.4,467.3 528.6,467.3 528.6,479.7 
		527.3,479.7 520,469.2 520,469.2 520,479.7 518.9,479.7 	"/>
	<path fill="#5D5E5E" d="M546.7,479.7h-0.9l-0.1-2.3l0,0c-0.9,1.8-2.6,2.6-4.2,2.6c-4,0-5.9-3.1-5.9-6.4c0-3.3,1.9-6.4,5.9-6.4
		c2.6,0,4.7,1.4,5.1,4.1h-1.2c-0.1-1.4-1.7-3.1-4-3.1c-3.3,0-4.6,2.7-4.6,5.5c0,2.7,1.4,5.5,4.6,5.5c2.7,0,4.4-1.9,4.2-4.6h-4.2v-1
		h5.3V479.7z"/>
	<polygon fill="#5D5E5E" points="554,467.3 562.6,467.3 562.6,468.3 555.3,468.3 555.3,472.8 562.1,472.8 562.1,473.8 555.3,473.8 
		555.3,478.7 562.7,478.7 562.7,479.7 554,479.7 	"/>
</g>
<g id="triangle">
	<polygon fill="#8EC641" points="66.5,417.6 102,356 137.7,417.6 	"/>
	<path fill="#8EC641" d="M66.5,417.6L30.8,356H102l-0.5,0.8L66.5,417.6z M32.7,357.1l33.7,58.5l33.7-58.5H32.7z"/>
</g>
</svg>
