<?xml version="1.0" encoding="utf-8"?>
<!-- Generator: Adobe Illustrator 18.1.0, SVG Export Plug-In . SVG Version: 6.00 Build 0)  -->
<!DOCTYPE svg PUBLIC "-//W3C//DTD SVG 1.1//EN" "http://www.w3.org/Graphics/SVG/1.1/DTD/svg11.dtd">
<svg version="1.1" id="Layer_1" xmlns="http://www.w3.org/2000/svg" xmlns:xlink="http://www.w3.org/1999/xlink" x="0px" y="0px"
	 viewBox="0 0 477 178.5" enable-background="new 0 0 477 178.5" xml:space="preserve">
	    <style>
        svg * {
            transition: fill 1s ease-out, opacity .1s ease-out;
        }
	
        @media screen and (max-width: 200px) {
            #UMX-Text { 
                opacity: 0; 
            }
            
        }
        @media screen and (max-width: 180px) {
		svg{
		margin-left:-35px
		}
            #triangle {
                opacity: 0;
				
            }
        }
    </style>
	<g id="UMX">
<text transform="matrix(1 0 0 1 124.0861 128.894)"><tspan x="0" y="0" fill="#8EC641" font-family="'MuseoSansRounded-700'" font-size="166.3517" letter-spacing="-9">u</tspan><tspan x="88.8" y="0" fill="#8EC641" font-family="'MuseoSansRounded-700'" font-size="166.3517" letter-spacing="-3">m</tspan><tspan x="234.9" y="0" fill="#8EC641" font-family="'MuseoSansRounded-700'" font-size="166.3517">x</tspan></text>
<path fill="#8EC641" d="M454.2,51.1c0,3.9-3,6.9-6.9,6.9c-3.9,0-6.9-3-6.9-6.9c0-3.9,3-6.9,6.9-6.9
	C451.2,44.2,454.2,47.2,454.2,51.1 M441.5,51.1c0,3.3,2.5,5.9,5.9,5.9c3.3,0,5.8-2.6,5.8-5.9c0-3.3-2.5-6-5.8-6
	C443.9,45.2,441.5,47.8,441.5,51.1 M445.8,55.1h-1v-8h3.1c1.8,0,2.6,0.8,2.6,2.2c0,1.4-0.9,2.1-2,2.2l2.4,3.6h-1.2l-2.3-3.6h-1.7
	V55.1z M447.1,50.7c1.2,0,2.4,0,2.4-1.4c0-1.1-0.9-1.4-1.9-1.4h-1.8v2.8H447.1z"/>
	</g>
	<g id="UMX-Text">
<path fill="#5D5E5E" d="M135.3,144.8h0.9v6c0,2.3,1.1,3.1,2.8,3.1c1.8,0,2.9-0.9,2.8-3.1v-6h0.9v6.2c0,2-1.1,3.7-3.8,3.7
	c-2.7,0-3.8-1.7-3.8-3.7V144.8z"/>
<polygon fill="#5D5E5E" points="148.6,144.8 149.6,144.8 155.3,153 155.3,153 155.3,144.8 156.2,144.8 156.2,154.5 155.2,154.5 
	149.6,146.3 149.5,146.3 149.5,154.5 148.6,154.5 "/>
<rect x="162.2" y="144.8" fill="#5D5E5E" width="0.9" height="9.7"/>
<polygon fill="#5D5E5E" points="168,144.8 169,144.8 172.1,153.4 172.1,153.4 175.2,144.8 176.2,144.8 172.6,154.5 171.6,154.5 "/>
<polygon fill="#5D5E5E" points="181,144.8 187.7,144.8 187.7,145.6 181.9,145.6 181.9,149.1 187.3,149.1 187.3,149.9 181.9,149.9 
	181.9,153.7 187.8,153.7 187.8,154.5 181,154.5 "/>
<path fill="#5D5E5E" d="M193,144.8h4.4c1.6,0,2.9,0.8,2.9,2.5c0,1.2-0.6,2.2-1.9,2.5v0c1.3,0.2,1.6,1,1.7,2.2c0,0.7,0,2,0.4,2.5h-1
	c-0.2-0.4-0.2-1.1-0.3-1.5c-0.1-1.4-0.2-2.9-1.9-2.8h-3.5v4.3H193V144.8z M193.9,149.4h3.4c1.1,0,2.1-0.7,2.1-1.9
	c0-1.2-0.7-1.9-2.1-1.9h-3.4V149.4z"/>
<path fill="#5D5E5E" d="M206.4,151.3c0,2,1.4,2.6,3.2,2.6c1,0,2.6-0.6,2.6-2c0-1.1-1.1-1.5-2-1.7l-2.2-0.5c-1.1-0.3-2.2-0.8-2.2-2.3
	c0-0.9,0.6-2.7,3.3-2.7c1.9,0,3.6,1,3.6,3h-0.9c-0.1-1.5-1.3-2.2-2.6-2.2c-1.3,0-2.4,0.5-2.4,1.9c0,0.9,0.7,1.3,1.5,1.5l2.4,0.6
	c1.4,0.4,2.5,1,2.5,2.6c0,0.7-0.3,2.8-3.7,2.8c-2.3,0-4-1-3.9-3.4H206.4z"/>
<rect x="218.5" y="144.8" fill="#5D5E5E" width="0.9" height="9.7"/>
<polygon fill="#5D5E5E" points="224.3,144.8 232,144.8 232,145.6 228.6,145.6 228.6,154.5 227.7,154.5 227.7,145.6 224.3,145.6 "/>
<polygon fill="#5D5E5E" points="239.5,150.5 235.7,144.8 236.8,144.8 240,149.7 243.2,144.8 244.3,144.8 240.5,150.5 240.5,154.5 
	239.5,154.5 "/>
<polygon fill="#5D5E5E" points="256.7,144.8 258.1,144.8 261.4,153.3 264.8,144.8 266.1,144.8 266.1,154.5 265.2,154.5 265.2,146.1 
	265.2,146.1 261.9,154.5 261,154.5 257.7,146.1 257.6,146.1 257.6,154.5 256.7,154.5 "/>
<path fill="#5D5E5E" d="M274.8,144.8h1l3.8,9.7h-1l-1.2-3h-4.4l-1.2,3h-1L274.8,144.8z M273.3,150.7h3.8l-1.9-5L273.3,150.7z"/>
<path fill="#5D5E5E" d="M284.4,144.8h4.4c1.6,0,2.9,0.8,2.9,2.5c0,1.2-0.6,2.2-1.9,2.5v0c1.3,0.2,1.6,1,1.7,2.2c0,0.7,0,2,0.4,2.5
	h-1c-0.2-0.4-0.2-1.1-0.3-1.5c-0.1-1.4-0.2-2.9-1.9-2.8h-3.5v4.3h-0.9V144.8z M285.4,149.4h3.4c1.1,0,2.1-0.7,2.1-1.9
	c0-1.2-0.7-1.9-2.1-1.9h-3.4V149.4z"/>
<polygon fill="#5D5E5E" points="297.4,144.8 298.3,144.8 298.3,150 304,144.8 305.2,144.8 300.9,148.8 305.4,154.5 304.2,154.5 
	300.2,149.4 298.3,151.1 298.3,154.5 297.4,154.5 "/>
<polygon fill="#5D5E5E" points="310.1,144.8 316.8,144.8 316.8,145.6 311.1,145.6 311.1,149.1 316.5,149.1 316.5,149.9 311.1,149.9 
	311.1,153.7 316.9,153.7 316.9,154.5 310.1,154.5 "/>
<polygon fill="#5D5E5E" points="321.1,144.8 328.7,144.8 328.7,145.6 325.4,145.6 325.4,154.5 324.4,154.5 324.4,145.6 321.1,145.6 
	"/>
<polygon fill="#5D5E5E" points="341.3,144.8 348,144.8 348,145.6 342.2,145.6 342.2,149.1 347.6,149.1 347.6,149.9 342.2,149.9 
	342.2,153.7 348,153.7 348,154.5 341.3,154.5 "/>
<polygon fill="#5D5E5E" points="352.3,144.8 353.4,144.8 356.1,148.8 359,144.8 360,144.8 356.7,149.5 360.2,154.5 359.1,154.5 
	356.1,150.2 353.1,154.5 352.1,154.5 355.6,149.5 "/>
<path fill="#5D5E5E" d="M372,147.7c-0.3-1.5-1.6-2.3-3-2.3c-2.6,0-3.6,2.1-3.6,4.3s1.1,4.3,3.6,4.3c1.8,0,2.9-1.4,3.1-3.1h0.9
	c-0.3,2.4-1.8,3.9-4,3.9c-3.1,0-4.6-2.4-4.6-5c0-2.6,1.5-5,4.6-5c1.8,0,3.6,1.1,3.9,3.1H372z"/>
<polygon fill="#5D5E5E" points="378.4,144.8 379.4,144.8 379.4,149 385.1,149 385.1,144.8 386,144.8 386,154.5 385.1,154.5 
	385.1,149.8 379.4,149.8 379.4,154.5 378.4,154.5 "/>
<path fill="#5D5E5E" d="M394.7,144.8h1l3.8,9.7h-1l-1.2-3H393l-1.2,3h-1L394.7,144.8z M393.3,150.7h3.8l-1.9-5L393.3,150.7z"/>
<polygon fill="#5D5E5E" points="404.4,144.8 405.4,144.8 411,153 411.1,153 411.1,144.8 412,144.8 412,154.5 411,154.5 405.3,146.3 
	405.3,146.3 405.3,154.5 404.4,154.5 "/>
<path fill="#5D5E5E" d="M426.1,154.5h-0.7l-0.1-1.8h0c-0.7,1.4-2,2-3.3,2c-3.1,0-4.6-2.4-4.6-5c0-2.6,1.5-5,4.6-5c2,0,3.7,1.1,4,3.2
	h-0.9c-0.1-1.1-1.3-2.4-3.1-2.4c-2.6,0-3.6,2.1-3.6,4.3c0,2.1,1.1,4.3,3.6,4.3c2.1,0,3.4-1.5,3.3-3.6H422v-0.8h4.1V154.5z"/>
<polygon fill="#5D5E5E" points="431.8,144.8 438.5,144.8 438.5,145.6 432.8,145.6 432.8,149.1 438.1,149.1 438.1,149.9 432.8,149.9 
	432.8,153.7 438.6,153.7 438.6,154.5 431.8,154.5 "/>
	</g>
	<g id="triangle">
<polygon fill="#8EC641" points="51.8,106.1 79.5,58.1 107.3,106.1 "/>
<path fill="#8EC641" d="M51.8,106.1L24,58.1h55.5l-0.4,0.6L51.8,106.1z M25.5,58.9l26.3,45.6l26.3-45.6H25.5z"/>
</g>
</svg>
